<svg width="20" height="20" viewBox="0 0 20 20" fill="none" xmlns="http://www.w3.org/2000/svg">
<path d="M8.40001 1.20001C4.64844 1.20001 1.60001 4.24845 1.60001 8.00001C1.60001 11.7516 4.64844 14.8 8.40001 14.8C9.88438 14.8 11.2563 14.3219 12.375 13.5125L17.6375 18.7625L18.7625 17.6375L13.5625 12.425C14.5844 11.2344 15.2 9.68907 15.2 8.00001C15.2 4.24845 12.1516 1.20001 8.40001 1.20001ZM8.40001 2.00001C11.7188 2.00001 14.4 4.68126 14.4 8.00001C14.4 11.3188 11.7188 14 8.40001 14C5.08126 14 2.40001 11.3188 2.40001 8.00001C2.40001 4.68126 5.08126 2.00001 8.40001 2.00001Z" fill="black"/>
</svg>
