<svg width="40" height="40" viewBox="0 0 40 40" fill="none" xmlns="http://www.w3.org/2000/svg">
<path d="M38 20C38 29.9411 29.9411 38 20 38C10.0589 38 2 29.9411 2 20C2 10.0589 10.0589 2 20 2C29.9411 2 38 10.0589 38 20Z" fill="#0D374F" stroke="url(#paint0_angular_2_33)" stroke-width="4"/>
<path d="M6.76056 22.6282V17.3512H8.70818C9.07584 17.3512 9.3814 17.4114 9.62485 17.5316C9.86996 17.6501 10.053 17.8125 10.1739 18.0186C10.2964 18.2247 10.3577 18.4583 10.3577 18.7194C10.3577 18.9341 10.3179 19.1179 10.2384 19.2708C10.159 19.422 10.0521 19.5448 9.91798 19.6393C9.78384 19.7338 9.63396 19.8016 9.46834 19.8428V19.8944C9.64886 19.9047 9.82193 19.9622 9.98754 20.067C10.1548 20.1701 10.2914 20.3161 10.3974 20.505C10.5034 20.694 10.5564 20.9225 10.5564 21.1904C10.5564 21.4635 10.4927 21.7092 10.3651 21.9273C10.2376 22.1438 10.0455 22.3147 9.78881 22.4401C9.53211 22.5655 9.20916 22.6282 8.81997 22.6282H6.76056ZM7.6822 21.8294H8.6734C9.00794 21.8294 9.24891 21.7633 9.3963 21.631C9.54535 21.497 9.61988 21.3253 9.61988 21.1157C9.61988 20.9594 9.58262 20.8185 9.50809 20.6931C9.43357 20.566 9.32757 20.4664 9.19011 20.3942C9.05265 20.3204 8.8887 20.2834 8.69824 20.2834H7.6822V21.8294ZM7.6822 19.5955H8.5939C8.75289 19.5955 8.89615 19.5654 9.02367 19.5053C9.15119 19.4435 9.25139 19.3567 9.32426 19.2451C9.39879 19.1317 9.43605 18.9977 9.43605 18.8431C9.43605 18.6387 9.36649 18.4704 9.22738 18.3381C9.08992 18.2058 8.88538 18.1397 8.61378 18.1397H7.6822V19.5955Z" fill="#F5FCFE"/>
<path d="M13.1658 22.6282H12.1821L13.9732 17.3512H15.1109L16.9045 22.6282H15.9208L14.5619 18.4334H14.5222L13.1658 22.6282ZM13.1981 20.5591H15.881V21.327H13.1981V20.5591Z" fill="#F5FCFE"/>
<path d="M17.8619 17.3512H18.9028L20.1474 19.6857H20.1971L21.4417 17.3512H22.4825L20.6318 20.6596V22.6282H19.7127V20.6596L17.8619 17.3512Z" fill="#F5FCFE"/>
<path d="M24.2895 22.6282V17.3512H27.5985V18.1526H25.2112V19.5852H27.4271V20.3865H25.2112V21.8269H27.6184V22.6282H24.2895Z" fill="#F5FCFE"/>
<path d="M29.693 22.6282V17.3512H31.6009C31.9917 17.3512 32.3196 17.4217 32.5846 17.5625C32.8513 17.7034 33.0525 17.9009 33.1883 18.1551C33.3257 18.4077 33.3945 18.7023 33.3945 19.0389C33.3945 19.3773 33.3249 19.6711 33.1858 19.9201C33.0483 20.1675 32.8455 20.359 32.5772 20.4947C32.3089 20.6287 31.9793 20.6957 31.5885 20.6957H30.2296V19.9021H31.4642C31.6928 19.9021 31.8799 19.8695 32.0257 19.8042C32.1714 19.7372 32.2791 19.6401 32.3486 19.513C32.4198 19.3842 32.4554 19.2262 32.4554 19.0389C32.4554 18.8517 32.4198 18.6919 32.3486 18.5597C32.2774 18.4257 32.1689 18.3243 32.0232 18.2556C31.8775 18.1852 31.6895 18.15 31.4593 18.15H30.6147V22.6282H29.693ZM32.3213 20.2371L33.5808 22.6282H32.5523L31.3152 20.2371H32.3213Z" fill="#F5FCFE"/>
<path d="M18.4198 10.5352V5.25821H20.3674C20.735 5.25821 21.0406 5.31833 21.284 5.43857C21.5292 5.5571 21.7122 5.71943 21.8331 5.92556C21.9556 6.13169 22.0169 6.3653 22.0169 6.6264C22.0169 6.84112 21.9771 7.02492 21.8976 7.1778C21.8181 7.32897 21.7113 7.45179 21.5772 7.54626C21.443 7.64074 21.2931 7.70859 21.1275 7.74982V7.80135C21.3081 7.81166 21.4811 7.8692 21.6467 7.97399C21.814 8.07705 21.9506 8.22306 22.0566 8.41201C22.1626 8.60097 22.2156 8.82943 22.2156 9.0974C22.2156 9.37052 22.1519 9.61616 22.0243 9.83432C21.8968 10.0508 21.7047 10.2217 21.448 10.3471C21.1913 10.4725 20.8684 10.5352 20.4792 10.5352H18.4198ZM19.3414 9.73641H20.3326C20.6671 9.73641 20.9081 9.67027 21.0555 9.53801C21.2045 9.40402 21.2791 9.23224 21.2791 9.02268C21.2791 8.86636 21.2418 8.72551 21.1673 8.60011C21.0928 8.473 20.9868 8.37337 20.8493 8.30122C20.7118 8.22736 20.5479 8.19042 20.3574 8.19042H19.3414V9.73641ZM19.3414 7.50246H20.2531C20.4121 7.50246 20.5553 7.4724 20.6829 7.41228C20.8104 7.35044 20.9106 7.26369 20.9835 7.15204C21.058 7.03867 21.0952 6.90468 21.0952 6.75008C21.0952 6.54567 21.0257 6.37733 20.8866 6.24506C20.7491 6.11279 20.5446 6.04666 20.273 6.04666H19.3414V7.50246Z" fill="#F5FCFE"/>
<path d="M18.7144 16.3026H17.7306L19.5217 11.0257H20.6595L22.4531 16.3026H21.4693L20.1105 12.1078H20.0707L18.7144 16.3026ZM18.7467 14.2336H21.4296V15.0014H18.7467V14.2336Z" fill="#F5FCFE"/>
<path d="M18.4198 28.9538V23.6768H21.7287V24.4781H19.3414V25.9108H21.5573V26.7121H19.3414V28.1524H21.7486V28.9538H18.4198Z" fill="#F5FCFE"/>
<path d="M18.4198 34.9073V29.6303H20.3276C20.7185 29.6303 21.0464 29.7007 21.3114 29.8416C21.578 29.9824 21.7792 30.18 21.915 30.4342C22.0525 30.6867 22.1212 30.9813 22.1212 31.318C22.1212 31.6564 22.0517 31.9501 21.9125 32.1992C21.7751 32.4466 21.5722 32.6381 21.3039 32.7738C21.0356 32.9078 20.7061 32.9748 20.3152 32.9748H18.9563V32.1812H20.191C20.4195 32.1812 20.6067 32.1485 20.7524 32.0833C20.8982 32.0163 21.0058 31.9192 21.0754 31.7921C21.1466 31.6633 21.1822 31.5052 21.1822 31.318C21.1822 31.1308 21.1466 30.971 21.0754 30.8387C21.0042 30.7048 20.8957 30.6034 20.7499 30.5347C20.6042 30.4643 20.4162 30.4291 20.186 30.4291H19.3414V34.9073H18.4198ZM21.048 32.5161L22.3075 34.9073H21.2791L20.0419 32.5161H21.048Z" fill="#F5FCFE"/>
<defs>
<radialGradient id="paint0_angular_2_33" cx="0" cy="0" r="1" gradientUnits="userSpaceOnUse" gradientTransform="translate(20 20) rotate(90) scale(20)">
<stop stop-color="#89D329"/>
<stop offset="1" stop-color="#00BCFF"/>
</radialGradient>
</defs>
</svg>
